<?xml version="1.0" encoding="utf-8"?>
<!-- Generator: Adobe Illustrator 25.0.1, SVG Export Plug-In . SVG Version: 6.00 Build 0)  -->
<svg version="1.1" xmlns="http://www.w3.org/2000/svg" xmlns:xlink="http://www.w3.org/1999/xlink" x="0px" y="0px"
	 viewBox="0 0 200 400" style="enable-background:new 0 0 200 400;" xml:space="preserve">
<style type="text/css">
	.st0{display:none;}
	.st1{display:inline;}
	.st2{fill:#5F6163;}
	.st3{display:inline;fill:#5F6163;}
	.st4{fill:#00599D;}
</style>
<g id="Layer_1" class="st0">
	<g class="st1">
		<path class="st2" d="M165.7,12.2c-4.9-0.1-9,3.8-9.1,8.6c-0.2,10.4-3.1,20-7.3,28.8l-42.7,0.9c-4.9,0-8.9,4.1-8.8,9
			c0,4.9,4.1,8.9,9,8.8l31.2-0.6c-6.7,8.5-14.2,15.8-21.2,21.7c-3.8,3.2-4.3,8.8-1.1,12.6c3.2,3.7,8.8,4.3,12.6,1.1
			c4.2-3.6,8.6-7.5,13.1-12.1c16.8-17.2,32.6-40.9,33.2-69.6C174.5,16.4,170.7,12.4,165.7,12.2z"/>
		<path class="st2" d="M112.5,109.8c-0.7-0.4-70.4-33.8-72.6-87.4c-0.2-4.9-4.3-8.8-9.3-8.5c-4.9,0.2-8.8,4.3-8.5,9.3
			c2.7,63.6,78,100.5,82.7,102.7c2.7,1.4,48.1,25.1,53.5,71l-116.8,1.4c1-9.5,3.7-18.1,7.4-25.8l54.1-0.7c2.5,0,4.7-1.1,6.3-2.7
			c1.6-1.6,2.6-3.8,2.6-6.3c0-4.9-4.1-8.9-9-8.8l-42.2,0.6c6-7.5,13-13.7,19.3-18.8c3.8-3,4.6-8.6,1.5-12.5
			c-3.1-3.8-8.6-4.6-12.5-1.5c-9.5,7.4-22.6,19.6-32.2,36.4c-0.6,0.7-1.1,1.6-1.5,2.6c-7,13-12.1,28.5-11.9,46.7l0,0l0,0l0,0
			c0.6,62.1,60.9,93.4,63.8,94.9c0.1,0,0.1,0.1,0.2,0.1c0.7,0.4,70.4,33.8,72.6,87.4c0.2,4.9,4.3,8.8,9.3,8.5c2.3-0.1,4.4-1.1,6-2.7
			c1.6-1.7,2.6-4.1,2.5-6.5c-2.7-63.6-78-100.5-82.7-102.7c-2.6-1.4-47.7-24.8-53.5-70.4l116.5-1.4c-1.1,9.3-3.8,17.8-7.5,25.4
			l-54.3,0.7c-4.9,0-8.9,4.1-8.8,9c0,4.9,4.1,8.9,9,8.8l42.5-0.6c-6,7.4-12.7,13.6-19,18.5c-3.8,3-4.6,8.6-1.5,12.5
			c3.1,3.8,8.6,4.6,12.5,1.5c4.2-3.2,9-7.4,13.9-12.6c15.3-15.7,31.5-39.9,31.6-72.1c0-0.1,0-0.2,0-0.4c0-0.1,0-0.1,0-0.1
			c0-0.1,0-0.4,0-0.5c-0.6-62.2-61-93.4-63.8-94.9C112.7,109.9,112.7,109.8,112.5,109.8z"/>
		<path class="st2" d="M89.1,349.9l-31.5,0.6c7.5-11.1,17-20.5,25.7-27.7c3.7-3.2,4.3-8.8,1.1-12.6c-3.2-3.8-8.8-4.3-12.6-1.1
			c-17.5,14.7-30.2,30.6-37.8,47v0.1c-5.2,11.4-8.1,22.8-8.4,34.6c-0.1,4.9,3.8,9,8.6,9.1c2.6,0.1,4.9-1,6.5-2.7
			c1.5-1.6,2.5-3.7,2.5-6c0.2-8,2-15.7,4.7-22.7l41.2-0.7c2.5,0,4.7-1.1,6.3-2.7c1.6-1.6,2.6-3.8,2.6-6.3
			C98,353.8,94,349.9,89.1,349.9z"/>
	</g>
</g>
<g id="Layer_3" class="st0">
	<path class="st3" d="M168.8,13.8H30c-4.2,0-7.7,3.2-7.8,7.1v40c0,3.9,3.5,7.1,7.8,7.1h9.9v184.1v14.2l0,0v79.3
		c0,30,26.7,54.3,59.5,54.3s59.5-24.4,59.5-54.3v-79.3v-14.1V68.2h9.9c4.2,0,7.7-3.2,7.8-7.1V21C176.6,17.1,173.1,13.8,168.8,13.8z
		 M143.4,168.7v14.2v27.6H55.1l0.1-142.4h88.1V168.7z M99.2,385.9c-24.4,0-44.1-18-44.1-40.3V226.9h88.3v118.8
		C143.4,367.9,123.6,385.9,99.2,385.9z M161.1,54H37.7V27.9l0,0h123.4V54z"/>
	<path class="st3" d="M99.4,301.4L99.4,301.4c-4.8,0-8.6-3.9-8.6-8.6v-37.8c0-4.8,3.9-8.6,8.6-8.6h0c4.8,0,8.6,3.9,8.6,8.6v37.8
		C108,297.6,104.2,301.4,99.4,301.4z"/>
	<path class="st3" d="M71.7,273.9L71.7,273.9c0-4.8,3.9-8.6,8.6-8.6h37.8c4.8,0,8.6,3.9,8.6,8.6l0,0c0,4.8-3.9,8.6-8.6,8.6H80.3
		C75.6,282.5,71.7,278.6,71.7,273.9z"/>
</g>
<g id="Layer_2">
	<g>
		<path class="st4" d="M50.3,324.9l-22.1,30.9c-3.6,5.2-5.5,10.9-5.5,16.6c0,15.2,12.4,27.6,27.6,27.6s27.6-12.4,27.6-27.6
			c0-5.7-1.9-11.4-5.5-16.6L50.3,324.9z M61,372.4c0,6-4.8,10.8-10.8,10.8c-6,0-10.8-4.8-10.8-10.8c0-2.2,0.8-4.5,2.5-6.8l8.3-11.7
			l8.4,11.7C60.2,367.8,61,370.1,61,372.4z"/>
		<path class="st4" d="M89.5,261l22.5-71.6l-45.4-14.3l-22.4,71.6c-1.9,6.1-1.3,12.5,1.6,18.1c3,5.7,7.9,9.9,13.9,11.7
			c2.4,0.7,4.8,1.1,7.2,1.1c3.8,0,7.5-0.9,10.9-2.7C83.6,271.9,87.7,267,89.5,261z M91.7,200l-17.7,56.2c-0.5,1.9-1.9,3.5-3.7,4.4
			c-1.8,0.9-3.8,1.1-5.8,0.5c-2-0.6-3.5-1.9-4.5-3.7c-0.9-1.8-1.1-3.8-0.5-5.8l17.7-56.1L91.7,200z"/>
		<path class="st4" d="M158.9,105L170,69.9c3.5-10.9,2.5-22.6-2.8-32.9c-5.3-10.2-14.3-17.7-25.3-21.2c-11-3.5-22.7-2.5-32.9,2.8
			S91.2,33,87.8,44L76.7,79.1l-22.3-7l-11.9,37.7l22.3,7L25.8,241c-3.5,11-2.5,22.7,2.8,32.9c1.9,3.6,4.2,6.8,7,9.7l-5.5,17.4
			L70,313.6l5.5-17.4c3.9-0.8,7.7-2.1,11.3-4c10.2-5.3,17.7-14.3,21.2-25.3L147,142.8l22.3,7l11.9-37.7L158.9,105z M59.4,293.1
			l-9-2.8l3.8-12.1l-4.3-3.5c-2.9-2.4-5.3-5.2-7-8.5c-3.3-6.4-4-13.7-1.8-20.5l39.1-124.1l51.3,16.1l-39,124.2
			c-2.1,6.8-6.8,12.4-13.2,15.7c-3.2,1.7-6.8,2.7-10.6,2.9l-5.5,0.5L59.4,293.1z M161,122.6l-2.1,6.7L63.1,99.1l2.1-6.7l22.3,7
			l15.9-50.6c2.1-6.8,6.8-12.4,13.2-15.7c6.4-3.3,13.7-4,20.5-1.8c6.8,2.1,12.4,6.8,15.7,13.2c3.3,6.4,4,13.7,1.8,20.5l-16.1,50.5
			L161,122.6z"/>
		<path class="st4" d="M136,34.2c-6.1-1.9-12.5-1.3-18.1,1.6c-5.7,3-9.9,7.9-11.7,13.9l-7.9,25.2l15.5,4.9l7.9-25.2
			c0.6-2,1.9-3.5,3.7-4.5c1.8-0.9,3.8-1.1,5.8-0.5l3.2,1l4.9-15.5L136,34.2z"/>
	</g>
</g>
</svg>
